<svg xmlns="http://www.w3.org/2000/svg" xmlns:xlink="http://www.w3.org/1999/xlink" width="500" zoomAndPan="magnify" viewBox="0 0 375 374.999991" height="500" preserveAspectRatio="xMidYMid meet" version="1.0"><defs><clipPath id="4ed307e639"><path d="M 234 60 L 304 60 L 304 130 L 234 130 Z M 234 60 " clip-rule="nonzero"/></clipPath><clipPath id="93df715b0c"><path d="M 232.699219 62.296875 L 301.613281 58.882812 L 305.027344 127.800781 L 236.109375 131.210938 Z M 232.699219 62.296875 " clip-rule="nonzero"/></clipPath><clipPath id="095c2fe54f"><path d="M 232.699219 62.296875 L 301.613281 58.882812 L 305.027344 127.800781 L 236.109375 131.210938 Z M 232.699219 62.296875 " clip-rule="nonzero"/></clipPath></defs><path stroke-linecap="butt" transform="matrix(1.785714, 0, 0, 1.785714, 0.0000045, 0)" fill-opacity="1" fill="#ffffff" fill-rule="nonzero" stroke-linejoin="miter" d="M 114.530947 80.001258 L 138.667824 93.824072 L 138.460012 66.591882 Z M 114.530947 80.001258 " stroke="#ffffff" stroke-width="0.265" stroke-opacity="1" stroke-miterlimit="4"/><path stroke-linecap="butt" transform="matrix(1.785714, 0, 0, 1.785714, 0.0000045, 0)" fill-opacity="1" fill="#ffffff" fill-rule="nonzero" stroke-linejoin="miter" d="M 98.903445 132.914701 L 74.766568 119.091887 L 74.97438 146.324078 Z M 98.903445 132.914701 " stroke="#ffffff" stroke-width="0.265" stroke-opacity="1" stroke-miterlimit="4"/><path stroke-linecap="butt" transform="matrix(1.785714, 0, 0, 1.785714, 12.525005, 11.789286)" fill-opacity="1" fill="#ffffff" fill-rule="nonzero" stroke-linejoin="miter" d="M 69.72788 69.728632 C 81.651943 88.383634 116.441947 92.19426 128.151636 101.723011 C 138.618824 110.238949 142.838512 120.5027 135.536637 133.061139 C 131.341011 121.449888 93.300382 110.967386 77.123818 101.327073 C 67.463817 95.569572 63.692567 83.717696 69.72788 69.728632 Z M 69.72788 69.728632 " stroke="#ffffff" stroke-width="0.265" stroke-opacity="1" stroke-miterlimit="4"/><path stroke-linecap="butt" transform="matrix(1.785714, 0, 0, 1.785714, 12.525005, 11.789286)" fill-opacity="1" fill="#ffffff" fill-rule="nonzero" stroke-linejoin="miter" d="M 138.321324 127.257701 L 122.429135 120.776138 L 130.645386 146.286765 Z M 138.321324 127.257701 " stroke="#ffffff" stroke-width="0.213" stroke-opacity="1" stroke-miterlimit="4"/><path stroke-linecap="butt" transform="matrix(1.785714, 0, 0, 1.785714, 12.525005, 11.789286)" fill-opacity="1" fill="#ffffff" fill-rule="nonzero" stroke-linejoin="miter" d="M 68.78288 71.793632 L 83.509131 82.394258 L 75.658193 54.549568 Z M 68.78288 71.793632 " stroke="#ffffff" stroke-width="0.213" stroke-opacity="1" stroke-miterlimit="4"/><g clip-path="url(#4ed307e639)"><g clip-path="url(#93df715b0c)"><g clip-path="url(#095c2fe54f)"><path fill="#36d7ff" d="M 267.121094 60.515625 C 266.746094 60.539062 266.378906 60.597656 266.015625 60.695312 C 265.652344 60.792969 265.304688 60.921875 264.96875 61.085938 C 264.632812 61.253906 264.316406 61.449219 264.015625 61.675781 C 263.71875 61.902344 263.445312 62.160156 263.199219 62.441406 C 262.953125 62.722656 262.734375 63.023438 262.546875 63.347656 C 262.359375 63.671875 262.203125 64.011719 262.082031 64.367188 C 261.960938 64.722656 261.875 65.085938 261.824219 65.457031 C 261.777344 65.828125 261.761719 66.199219 261.785156 66.574219 L 262.917969 89.390625 L 240.101562 90.519531 C 239.722656 90.535156 239.347656 90.585938 238.980469 90.671875 C 238.613281 90.761719 238.257812 90.882812 237.914062 91.042969 C 237.570312 91.199219 237.242188 91.390625 236.9375 91.613281 C 236.632812 91.835938 236.351562 92.085938 236.09375 92.367188 C 235.839844 92.644531 235.613281 92.945312 235.417969 93.269531 C 235.222656 93.59375 235.058594 93.933594 234.929688 94.289062 C 234.800781 94.644531 234.707031 95.007812 234.652344 95.382812 C 234.597656 95.757812 234.578125 96.132812 234.597656 96.511719 C 234.617188 96.890625 234.671875 97.261719 234.765625 97.628906 C 234.855469 97.996094 234.984375 98.351562 235.148438 98.691406 C 235.3125 99.035156 235.507812 99.355469 235.734375 99.660156 C 235.960938 99.960938 236.214844 100.238281 236.496094 100.492188 C 236.78125 100.742188 237.085938 100.964844 237.410156 101.15625 C 237.738281 101.347656 238.078125 101.503906 238.4375 101.628906 C 238.792969 101.753906 239.160156 101.839844 239.535156 101.890625 C 239.910156 101.941406 240.285156 101.953125 240.664062 101.929688 L 263.480469 100.800781 L 264.613281 123.617188 C 264.625 123.996094 264.675781 124.367188 264.761719 124.734375 C 264.851562 125.105469 264.972656 125.460938 265.132812 125.804688 C 265.289062 126.148438 265.480469 126.472656 265.703125 126.777344 C 265.925781 127.085938 266.175781 127.363281 266.457031 127.621094 C 266.734375 127.878906 267.035156 128.101562 267.359375 128.300781 C 267.683594 128.496094 268.023438 128.65625 268.378906 128.785156 C 268.734375 128.914062 269.101562 129.007812 269.472656 129.0625 C 269.847656 129.121094 270.226562 129.136719 270.601562 129.121094 C 270.980469 129.101562 271.351562 129.042969 271.71875 128.953125 C 272.085938 128.859375 272.441406 128.730469 272.78125 128.566406 C 273.125 128.40625 273.445312 128.210938 273.75 127.984375 C 274.050781 127.753906 274.328125 127.5 274.582031 127.21875 C 274.832031 126.9375 275.054688 126.632812 275.246094 126.304688 C 275.4375 125.980469 275.59375 125.636719 275.71875 125.28125 C 275.84375 124.921875 275.929688 124.554688 275.980469 124.179688 C 276.03125 123.804688 276.042969 123.429688 276.019531 123.050781 L 274.890625 100.234375 L 297.707031 99.105469 C 298.085938 99.089844 298.457031 99.039062 298.828125 98.953125 C 299.195312 98.867188 299.550781 98.742188 299.894531 98.585938 C 300.238281 98.425781 300.5625 98.234375 300.867188 98.011719 C 301.175781 97.789062 301.457031 97.539062 301.710938 97.261719 C 301.96875 96.980469 302.195312 96.679688 302.390625 96.355469 C 302.585938 96.03125 302.75 95.691406 302.875 95.335938 C 303.003906 94.980469 303.097656 94.617188 303.152344 94.242188 C 303.210938 93.867188 303.226562 93.492188 303.210938 93.113281 C 303.191406 92.734375 303.136719 92.363281 303.042969 91.996094 C 302.949219 91.628906 302.820312 91.273438 302.660156 90.933594 C 302.496094 90.59375 302.300781 90.269531 302.074219 89.96875 C 301.847656 89.664062 301.589844 89.386719 301.308594 89.136719 C 301.027344 88.882812 300.722656 88.660156 300.394531 88.46875 C 300.070312 88.277344 299.726562 88.121094 299.371094 87.996094 C 299.011719 87.875 298.644531 87.785156 298.269531 87.734375 C 297.894531 87.683594 297.519531 87.671875 297.140625 87.695312 L 274.324219 88.824219 L 273.195312 66.007812 C 273.179688 65.628906 273.128906 65.25 273.039062 64.878906 C 272.949219 64.507812 272.824219 64.148438 272.664062 63.804688 C 272.503906 63.457031 272.308594 63.128906 272.082031 62.824219 C 271.855469 62.515625 271.601562 62.234375 271.320312 61.976562 C 271.035156 61.722656 270.730469 61.496094 270.402344 61.300781 C 270.074219 61.105469 269.726562 60.945312 269.367188 60.820312 C 269.007812 60.695312 268.636719 60.605469 268.257812 60.554688 C 267.882812 60.503906 267.5 60.488281 267.121094 60.515625 Z M 267.121094 60.515625 " fill-opacity="1" fill-rule="nonzero"/></g></g></g></svg>